# xmcd CD database file
#
# Track frame offsets:
#	150
#	18238
#	43348
#	67518
#	84523
#	106785
#	131038
#	154448
#	169350
#	187868
#	216188
#	243423
#	271663
#	292928
#	310675
#
# Disc length: 4407 seconds
#
# Revision: 0
# Processed by: cddbd v1.5.1PL0 Copyright (c) Steve Scherf et al.
# Submitted via: CDex 1.51
#
DISCID=c511350f
DTITLE=Various Artist - BRASS PARADISE!!2
DYEAR=1900
DGENRE=Jazz
TTITLE0=PICK UP THE PIECES
TTITLE1=TAKE THE“A”TRAIN
TTITLE2=TO BE OR NOT TO BE
TTITLE3=VALDEZ IN THE COUNTRY
TTITLE4=NEW YORK
TTITLE5=SOLAR
TTITLE6=BIRDLAND
TTITLE7=HOW DO I GET TO YOUR HEART
TTITLE8=SPINNING WHEEL
TTITLE9=SOME SKUNK FUNK
TTITLE10=TELL ME A BEDTIME STORY
TTITLE11=TOMATO-IPPATSU
TTITLE12=GIVE ME YOUR LOVE
TTITLE13=IRONSIDE
TTITLE14=JACO PASTORIUS MEDLEY
EXTD=
EXTT0=
EXTT1=
EXTT2=
EXTT3=
EXTT4=
EXTT5=
EXTT6=
EXTT7=
EXTT8=
EXTT9=
EXTT10=
EXTT11=
EXTT12=
EXTT13=
EXTT14=
PLAYORDER=
